<?xml version="1.0" encoding="utf-8" standalone="no"?>
<!DOCTYPE svg PUBLIC "-//W3C//DTD SVG 1.1//EN"
  "http://www.w3.org/Graphics/SVG/1.1/DTD/svg11.dtd">
<svg xmlns:xlink="http://www.w3.org/1999/xlink" width="408.10125pt" height="310.86825pt" viewBox="0 0 408.10125 310.86825" xmlns="http://www.w3.org/2000/svg" version="1.1">
 <metadata>
  <rdf:RDF xmlns:dc="http://purl.org/dc/elements/1.1/" xmlns:cc="http://creativecommons.org/ns#" xmlns:rdf="http://www.w3.org/1999/02/22-rdf-syntax-ns#">
   <cc:Work>
    <dc:type rdf:resource="http://purl.org/dc/dcmitype/StillImage"/>
    <dc:date>2021-12-13T18:42:42.553601</dc:date>
    <dc:format>image/svg+xml</dc:format>
    <dc:creator>
     <cc:Agent>
      <dc:title>Matplotlib v3.5.1, https://matplotlib.org/</dc:title>
     </cc:Agent>
    </dc:creator>
   </cc:Work>
  </rdf:RDF>
 </metadata>
 <defs>
  <style type="text/css">*{stroke-linejoin: round; stroke-linecap: butt}</style>
 </defs>
 <g id="figure_1">
  <g id="patch_1">
   <path d="M 0 310.86825 
L 408.10125 310.86825 
L 408.10125 0 
L 0 0 
z
" style="fill: #ffffff"/>
  </g>
  <g id="axes_1">
   <g id="patch_2">
    <path d="M 43.78125 273.312 
L 400.90125 273.312 
L 400.90125 7.2 
L 43.78125 7.2 
z
" style="fill: #ffffff"/>
   </g>
   <g id="patch_3">
    <path d="M 61.22811 273.312 
L 62.843764 273.312 
L 62.843764 269.595871 
L 61.22811 269.595871 
z
" clip-path="url(#pfc75b2e71d)" style="fill: #1f77b4"/>
   </g>
   <g id="patch_4">
    <path d="M 62.843764 273.312 
L 64.459418 273.312 
L 64.459418 266.622968 
L 62.843764 266.622968 
z
" clip-path="url(#pfc75b2e71d)" style="fill: #1f77b4"/>
   </g>
   <g id="patch_5">
    <path d="M 64.459418 273.312 
L 66.075072 273.312 
L 66.075072 266.622968 
L 64.459418 266.622968 
z
" clip-path="url(#pfc75b2e71d)" style="fill: #1f77b4"/>
   </g>
   <g id="patch_6">
    <path d="M 66.075072 273.312 
L 67.690725 273.312 
L 67.690725 251.015226 
L 66.075072 251.015226 
z
" clip-path="url(#pfc75b2e71d)" style="fill: #1f77b4"/>
   </g>
   <g id="patch_7">
    <path d="M 67.690725 273.312 
L 69.306379 273.312 
L 69.306379 252.501677 
L 67.690725 252.501677 
z
" clip-path="url(#pfc75b2e71d)" style="fill: #1f77b4"/>
   </g>
   <g id="patch_8">
    <path d="M 69.306379 273.312 
L 70.922033 273.312 
L 70.922033 249.528774 
L 69.306379 249.528774 
z
" clip-path="url(#pfc75b2e71d)" style="fill: #1f77b4"/>
   </g>
   <g id="patch_9">
    <path d="M 70.922033 273.312 
L 72.537687 273.312 
L 72.537687 251.015226 
L 70.922033 251.015226 
z
" clip-path="url(#pfc75b2e71d)" style="fill: #1f77b4"/>
   </g>
   <g id="patch_10">
    <path d="M 72.537687 273.312 
L 74.153341 273.312 
L 74.153341 250.272 
L 72.537687 250.272 
z
" clip-path="url(#pfc75b2e71d)" style="fill: #1f77b4"/>
   </g>
   <g id="patch_11">
    <path d="M 74.153341 273.312 
L 75.768995 273.312 
L 75.768995 253.244903 
L 74.153341 253.244903 
z
" clip-path="url(#pfc75b2e71d)" style="fill: #1f77b4"/>
   </g>
   <g id="patch_12">
    <path d="M 75.768995 273.312 
L 77.384649 273.312 
L 77.384649 238.380387 
L 75.768995 238.380387 
z
" clip-path="url(#pfc75b2e71d)" style="fill: #1f77b4"/>
   </g>
   <g id="patch_13">
    <path d="M 77.384649 273.312 
L 79.000303 273.312 
L 79.000303 230.204903 
L 77.384649 230.204903 
z
" clip-path="url(#pfc75b2e71d)" style="fill: #1f77b4"/>
   </g>
   <g id="patch_14">
    <path d="M 79.000303 273.312 
L 80.615956 273.312 
L 80.615956 230.204903 
L 79.000303 230.204903 
z
" clip-path="url(#pfc75b2e71d)" style="fill: #1f77b4"/>
   </g>
   <g id="patch_15">
    <path d="M 80.615956 273.312 
L 82.23161 273.312 
L 82.23161 228.718452 
L 80.615956 228.718452 
z
" clip-path="url(#pfc75b2e71d)" style="fill: #1f77b4"/>
   </g>
   <g id="patch_16">
    <path d="M 82.23161 273.312 
L 83.847264 273.312 
L 83.847264 230.948129 
L 82.23161 230.948129 
z
" clip-path="url(#pfc75b2e71d)" style="fill: #1f77b4"/>
   </g>
   <g id="patch_17">
    <path d="M 83.847264 273.312 
L 85.462918 273.312 
L 85.462918 217.570065 
L 83.847264 217.570065 
z
" clip-path="url(#pfc75b2e71d)" style="fill: #1f77b4"/>
   </g>
   <g id="patch_18">
    <path d="M 85.462918 273.312 
L 87.078572 273.312 
L 87.078572 213.11071 
L 85.462918 213.11071 
z
" clip-path="url(#pfc75b2e71d)" style="fill: #1f77b4"/>
   </g>
   <g id="patch_19">
    <path d="M 87.078572 273.312 
L 88.694226 273.312 
L 88.694226 212.367484 
L 87.078572 212.367484 
z
" clip-path="url(#pfc75b2e71d)" style="fill: #1f77b4"/>
   </g>
   <g id="patch_20">
    <path d="M 88.694226 273.312 
L 90.30988 273.312 
L 90.30988 216.826839 
L 88.694226 216.826839 
z
" clip-path="url(#pfc75b2e71d)" style="fill: #1f77b4"/>
   </g>
   <g id="patch_21">
    <path d="M 90.30988 273.312 
L 91.925534 273.312 
L 91.925534 191.557161 
L 90.30988 191.557161 
z
" clip-path="url(#pfc75b2e71d)" style="fill: #1f77b4"/>
   </g>
   <g id="patch_22">
    <path d="M 91.925534 273.312 
L 93.541188 273.312 
L 93.541188 196.759742 
L 91.925534 196.759742 
z
" clip-path="url(#pfc75b2e71d)" style="fill: #1f77b4"/>
   </g>
   <g id="patch_23">
    <path d="M 93.541188 273.312 
L 95.156841 273.312 
L 95.156841 199.732645 
L 93.541188 199.732645 
z
" clip-path="url(#pfc75b2e71d)" style="fill: #1f77b4"/>
   </g>
   <g id="patch_24">
    <path d="M 95.156841 273.312 
L 96.772495 273.312 
L 96.772495 187.097806 
L 95.156841 187.097806 
z
" clip-path="url(#pfc75b2e71d)" style="fill: #1f77b4"/>
   </g>
   <g id="patch_25">
    <path d="M 96.772495 273.312 
L 98.388149 273.312 
L 98.388149 189.327484 
L 96.772495 189.327484 
z
" clip-path="url(#pfc75b2e71d)" style="fill: #1f77b4"/>
   </g>
   <g id="patch_26">
    <path d="M 98.388149 273.312 
L 100.003803 273.312 
L 100.003803 184.868129 
L 98.388149 184.868129 
z
" clip-path="url(#pfc75b2e71d)" style="fill: #1f77b4"/>
   </g>
   <g id="patch_27">
    <path d="M 100.003803 273.312 
L 101.619457 273.312 
L 101.619457 193.786839 
L 100.003803 193.786839 
z
" clip-path="url(#pfc75b2e71d)" style="fill: #1f77b4"/>
   </g>
   <g id="patch_28">
    <path d="M 101.619457 273.312 
L 103.235111 273.312 
L 103.235111 181.895226 
L 101.619457 181.895226 
z
" clip-path="url(#pfc75b2e71d)" style="fill: #1f77b4"/>
   </g>
   <g id="patch_29">
    <path d="M 103.235111 273.312 
L 104.850765 273.312 
L 104.850765 172.23329 
L 103.235111 172.23329 
z
" clip-path="url(#pfc75b2e71d)" style="fill: #1f77b4"/>
   </g>
   <g id="patch_30">
    <path d="M 104.850765 273.312 
L 106.466419 273.312 
L 106.466419 161.084903 
L 104.850765 161.084903 
z
" clip-path="url(#pfc75b2e71d)" style="fill: #1f77b4"/>
   </g>
   <g id="patch_31">
    <path d="M 106.466419 273.312 
L 108.082072 273.312 
L 108.082072 165.544258 
L 106.466419 165.544258 
z
" clip-path="url(#pfc75b2e71d)" style="fill: #1f77b4"/>
   </g>
   <g id="patch_32">
    <path d="M 108.082072 273.312 
L 109.697726 273.312 
L 109.697726 169.260387 
L 108.082072 169.260387 
z
" clip-path="url(#pfc75b2e71d)" style="fill: #1f77b4"/>
   </g>
   <g id="patch_33">
    <path d="M 109.697726 273.312 
L 111.31338 273.312 
L 111.31338 168.517161 
L 109.697726 168.517161 
z
" clip-path="url(#pfc75b2e71d)" style="fill: #1f77b4"/>
   </g>
   <g id="patch_34">
    <path d="M 111.31338 273.312 
L 112.929034 273.312 
L 112.929034 150.679742 
L 111.31338 150.679742 
z
" clip-path="url(#pfc75b2e71d)" style="fill: #1f77b4"/>
   </g>
   <g id="patch_35">
    <path d="M 112.929034 273.312 
L 114.544688 273.312 
L 114.544688 154.395871 
L 112.929034 154.395871 
z
" clip-path="url(#pfc75b2e71d)" style="fill: #1f77b4"/>
   </g>
   <g id="patch_36">
    <path d="M 114.544688 273.312 
L 116.160342 273.312 
L 116.160342 158.112 
L 114.544688 158.112 
z
" clip-path="url(#pfc75b2e71d)" style="fill: #1f77b4"/>
   </g>
   <g id="patch_37">
    <path d="M 116.160342 273.312 
L 117.775996 273.312 
L 117.775996 138.788129 
L 116.160342 138.788129 
z
" clip-path="url(#pfc75b2e71d)" style="fill: #1f77b4"/>
   </g>
   <g id="patch_38">
    <path d="M 117.775996 273.312 
L 119.39165 273.312 
L 119.39165 146.220387 
L 117.775996 146.220387 
z
" clip-path="url(#pfc75b2e71d)" style="fill: #1f77b4"/>
   </g>
   <g id="patch_39">
    <path d="M 119.39165 273.312 
L 121.007303 273.312 
L 121.007303 149.19329 
L 119.39165 149.19329 
z
" clip-path="url(#pfc75b2e71d)" style="fill: #1f77b4"/>
   </g>
   <g id="patch_40">
    <path d="M 121.007303 273.312 
L 122.622957 273.312 
L 122.622957 144.733935 
L 121.007303 144.733935 
z
" clip-path="url(#pfc75b2e71d)" style="fill: #1f77b4"/>
   </g>
   <g id="patch_41">
    <path d="M 122.622957 273.312 
L 124.238611 273.312 
L 124.238611 141.017806 
L 122.622957 141.017806 
z
" clip-path="url(#pfc75b2e71d)" style="fill: #1f77b4"/>
   </g>
   <g id="patch_42">
    <path d="M 124.238611 273.312 
L 125.854265 273.312 
L 125.854265 125.410065 
L 124.238611 125.410065 
z
" clip-path="url(#pfc75b2e71d)" style="fill: #1f77b4"/>
   </g>
   <g id="patch_43">
    <path d="M 125.854265 273.312 
L 127.469919 273.312 
L 127.469919 127.639742 
L 125.854265 127.639742 
z
" clip-path="url(#pfc75b2e71d)" style="fill: #1f77b4"/>
   </g>
   <g id="patch_44">
    <path d="M 127.469919 273.312 
L 129.085573 273.312 
L 129.085573 135.815226 
L 127.469919 135.815226 
z
" clip-path="url(#pfc75b2e71d)" style="fill: #1f77b4"/>
   </g>
   <g id="patch_45">
    <path d="M 129.085573 273.312 
L 130.701227 273.312 
L 130.701227 135.815226 
L 129.085573 135.815226 
z
" clip-path="url(#pfc75b2e71d)" style="fill: #1f77b4"/>
   </g>
   <g id="patch_46">
    <path d="M 130.701227 273.312 
L 132.316881 273.312 
L 132.316881 132.099097 
L 130.701227 132.099097 
z
" clip-path="url(#pfc75b2e71d)" style="fill: #1f77b4"/>
   </g>
   <g id="patch_47">
    <path d="M 132.316881 273.312 
L 133.932534 273.312 
L 133.932534 138.044903 
L 132.316881 138.044903 
z
" clip-path="url(#pfc75b2e71d)" style="fill: #1f77b4"/>
   </g>
   <g id="patch_48">
    <path d="M 133.932534 273.312 
L 135.548188 273.312 
L 135.548188 127.639742 
L 133.932534 127.639742 
z
" clip-path="url(#pfc75b2e71d)" style="fill: #1f77b4"/>
   </g>
   <g id="patch_49">
    <path d="M 135.548188 273.312 
L 137.163842 273.312 
L 137.163842 115.004903 
L 135.548188 115.004903 
z
" clip-path="url(#pfc75b2e71d)" style="fill: #1f77b4"/>
   </g>
   <g id="patch_50">
    <path d="M 137.163842 273.312 
L 138.779496 273.312 
L 138.779496 105.342968 
L 137.163842 105.342968 
z
" clip-path="url(#pfc75b2e71d)" style="fill: #1f77b4"/>
   </g>
   <g id="patch_51">
    <path d="M 138.779496 273.312 
L 140.39515 273.312 
L 140.39515 83.789419 
L 138.779496 83.789419 
z
" clip-path="url(#pfc75b2e71d)" style="fill: #1f77b4"/>
   </g>
   <g id="patch_52">
    <path d="M 140.39515 273.312 
L 142.010804 273.312 
L 142.010804 107.572645 
L 140.39515 107.572645 
z
" clip-path="url(#pfc75b2e71d)" style="fill: #1f77b4"/>
   </g>
   <g id="patch_53">
    <path d="M 142.010804 273.312 
L 143.626458 273.312 
L 143.626458 83.789419 
L 142.010804 83.789419 
z
" clip-path="url(#pfc75b2e71d)" style="fill: #1f77b4"/>
   </g>
   <g id="patch_54">
    <path d="M 143.626458 273.312 
L 145.242112 273.312 
L 145.242112 94.194581 
L 143.626458 94.194581 
z
" clip-path="url(#pfc75b2e71d)" style="fill: #1f77b4"/>
   </g>
   <g id="patch_55">
    <path d="M 145.242112 273.312 
L 146.857766 273.312 
L 146.857766 87.505548 
L 145.242112 87.505548 
z
" clip-path="url(#pfc75b2e71d)" style="fill: #1f77b4"/>
   </g>
   <g id="patch_56">
    <path d="M 146.857766 273.312 
L 148.473419 273.312 
L 148.473419 97.91071 
L 146.857766 97.91071 
z
" clip-path="url(#pfc75b2e71d)" style="fill: #1f77b4"/>
   </g>
   <g id="patch_57">
    <path d="M 148.473419 273.312 
L 150.089073 273.312 
L 150.089073 83.046194 
L 148.473419 83.046194 
z
" clip-path="url(#pfc75b2e71d)" style="fill: #1f77b4"/>
   </g>
   <g id="patch_58">
    <path d="M 150.089073 273.312 
L 151.704727 273.312 
L 151.704727 103.856516 
L 150.089073 103.856516 
z
" clip-path="url(#pfc75b2e71d)" style="fill: #1f77b4"/>
   </g>
   <g id="patch_59">
    <path d="M 151.704727 273.312 
L 153.320381 273.312 
L 153.320381 106.829419 
L 151.704727 106.829419 
z
" clip-path="url(#pfc75b2e71d)" style="fill: #1f77b4"/>
   </g>
   <g id="patch_60">
    <path d="M 153.320381 273.312 
L 154.936035 273.312 
L 154.936035 82.302968 
L 153.320381 82.302968 
z
" clip-path="url(#pfc75b2e71d)" style="fill: #1f77b4"/>
   </g>
   <g id="patch_61">
    <path d="M 154.936035 273.312 
L 156.551689 273.312 
L 156.551689 89.735226 
L 154.936035 89.735226 
z
" clip-path="url(#pfc75b2e71d)" style="fill: #1f77b4"/>
   </g>
   <g id="patch_62">
    <path d="M 156.551689 273.312 
L 158.167343 273.312 
L 158.167343 85.275871 
L 156.551689 85.275871 
z
" clip-path="url(#pfc75b2e71d)" style="fill: #1f77b4"/>
   </g>
   <g id="patch_63">
    <path d="M 158.167343 273.312 
L 159.782997 273.312 
L 159.782997 88.992 
L 158.167343 88.992 
z
" clip-path="url(#pfc75b2e71d)" style="fill: #1f77b4"/>
   </g>
   <g id="patch_64">
    <path d="M 159.782997 273.312 
L 161.39865 273.312 
L 161.39865 86.762323 
L 159.782997 86.762323 
z
" clip-path="url(#pfc75b2e71d)" style="fill: #1f77b4"/>
   </g>
   <g id="patch_65">
    <path d="M 161.39865 273.312 
L 163.014304 273.312 
L 163.014304 78.586839 
L 161.39865 78.586839 
z
" clip-path="url(#pfc75b2e71d)" style="fill: #1f77b4"/>
   </g>
   <g id="patch_66">
    <path d="M 163.014304 273.312 
L 164.629958 273.312 
L 164.629958 72.641032 
L 163.014304 72.641032 
z
" clip-path="url(#pfc75b2e71d)" style="fill: #1f77b4"/>
   </g>
   <g id="patch_67">
    <path d="M 164.629958 273.312 
L 166.245612 273.312 
L 166.245612 88.992 
L 164.629958 88.992 
z
" clip-path="url(#pfc75b2e71d)" style="fill: #1f77b4"/>
   </g>
   <g id="patch_68">
    <path d="M 166.245612 273.312 
L 167.861266 273.312 
L 167.861266 78.586839 
L 166.245612 78.586839 
z
" clip-path="url(#pfc75b2e71d)" style="fill: #1f77b4"/>
   </g>
   <g id="patch_69">
    <path d="M 167.861266 273.312 
L 169.47692 273.312 
L 169.47692 65.208774 
L 167.861266 65.208774 
z
" clip-path="url(#pfc75b2e71d)" style="fill: #1f77b4"/>
   </g>
   <g id="patch_70">
    <path d="M 169.47692 273.312 
L 171.092574 273.312 
L 171.092574 69.668129 
L 169.47692 69.668129 
z
" clip-path="url(#pfc75b2e71d)" style="fill: #1f77b4"/>
   </g>
   <g id="patch_71">
    <path d="M 171.092574 273.312 
L 172.708228 273.312 
L 172.708228 71.897806 
L 171.092574 71.897806 
z
" clip-path="url(#pfc75b2e71d)" style="fill: #1f77b4"/>
   </g>
   <g id="patch_72">
    <path d="M 172.708228 273.312 
L 174.323881 273.312 
L 174.323881 63.722323 
L 172.708228 63.722323 
z
" clip-path="url(#pfc75b2e71d)" style="fill: #1f77b4"/>
   </g>
   <g id="patch_73">
    <path d="M 174.323881 273.312 
L 175.939535 273.312 
L 175.939535 37.709419 
L 174.323881 37.709419 
z
" clip-path="url(#pfc75b2e71d)" style="fill: #1f77b4"/>
   </g>
   <g id="patch_74">
    <path d="M 175.939535 273.312 
L 177.555189 273.312 
L 177.555189 77.843613 
L 175.939535 77.843613 
z
" clip-path="url(#pfc75b2e71d)" style="fill: #1f77b4"/>
   </g>
   <g id="patch_75">
    <path d="M 177.555189 273.312 
L 179.170843 273.312 
L 179.170843 54.803613 
L 177.555189 54.803613 
z
" clip-path="url(#pfc75b2e71d)" style="fill: #1f77b4"/>
   </g>
   <g id="patch_76">
    <path d="M 179.170843 273.312 
L 180.786497 273.312 
L 180.786497 59.262968 
L 179.170843 59.262968 
z
" clip-path="url(#pfc75b2e71d)" style="fill: #1f77b4"/>
   </g>
   <g id="patch_77">
    <path d="M 180.786497 273.312 
L 182.402151 273.312 
L 182.402151 57.776516 
L 180.786497 57.776516 
z
" clip-path="url(#pfc75b2e71d)" style="fill: #1f77b4"/>
   </g>
   <g id="patch_78">
    <path d="M 182.402151 273.312 
L 184.017805 273.312 
L 184.017805 59.262968 
L 182.402151 59.262968 
z
" clip-path="url(#pfc75b2e71d)" style="fill: #1f77b4"/>
   </g>
   <g id="patch_79">
    <path d="M 184.017805 273.312 
L 185.633459 273.312 
L 185.633459 76.357161 
L 184.017805 76.357161 
z
" clip-path="url(#pfc75b2e71d)" style="fill: #1f77b4"/>
   </g>
   <g id="patch_80">
    <path d="M 185.633459 273.312 
L 187.249113 273.312 
L 187.249113 45.884903 
L 185.633459 45.884903 
z
" clip-path="url(#pfc75b2e71d)" style="fill: #1f77b4"/>
   </g>
   <g id="patch_81">
    <path d="M 187.249113 273.312 
L 188.864766 273.312 
L 188.864766 48.114581 
L 187.249113 48.114581 
z
" clip-path="url(#pfc75b2e71d)" style="fill: #1f77b4"/>
   </g>
   <g id="patch_82">
    <path d="M 188.864766 273.312 
L 190.48042 273.312 
L 190.48042 38.452645 
L 188.864766 38.452645 
z
" clip-path="url(#pfc75b2e71d)" style="fill: #1f77b4"/>
   </g>
   <g id="patch_83">
    <path d="M 190.48042 273.312 
L 192.096074 273.312 
L 192.096074 45.884903 
L 190.48042 45.884903 
z
" clip-path="url(#pfc75b2e71d)" style="fill: #1f77b4"/>
   </g>
   <g id="patch_84">
    <path d="M 192.096074 273.312 
L 193.711728 273.312 
L 193.711728 62.979097 
L 192.096074 62.979097 
z
" clip-path="url(#pfc75b2e71d)" style="fill: #1f77b4"/>
   </g>
   <g id="patch_85">
    <path d="M 193.711728 273.312 
L 195.327382 273.312 
L 195.327382 39.939097 
L 193.711728 39.939097 
z
" clip-path="url(#pfc75b2e71d)" style="fill: #1f77b4"/>
   </g>
   <g id="patch_86">
    <path d="M 195.327382 273.312 
L 196.943036 273.312 
L 196.943036 51.087484 
L 195.327382 51.087484 
z
" clip-path="url(#pfc75b2e71d)" style="fill: #1f77b4"/>
   </g>
   <g id="patch_87">
    <path d="M 196.943036 273.312 
L 198.55869 273.312 
L 198.55869 62.979097 
L 196.943036 62.979097 
z
" clip-path="url(#pfc75b2e71d)" style="fill: #1f77b4"/>
   </g>
   <g id="patch_88">
    <path d="M 198.55869 273.312 
L 200.174344 273.312 
L 200.174344 21.358452 
L 198.55869 21.358452 
z
" clip-path="url(#pfc75b2e71d)" style="fill: #1f77b4"/>
   </g>
   <g id="patch_89">
    <path d="M 200.174344 273.312 
L 201.789997 273.312 
L 201.789997 57.776516 
L 200.174344 57.776516 
z
" clip-path="url(#pfc75b2e71d)" style="fill: #1f77b4"/>
   </g>
   <g id="patch_90">
    <path d="M 201.789997 273.312 
L 203.405651 273.312 
L 203.405651 36.966194 
L 201.789997 36.966194 
z
" clip-path="url(#pfc75b2e71d)" style="fill: #1f77b4"/>
   </g>
   <g id="patch_91">
    <path d="M 203.405651 273.312 
L 205.021305 273.312 
L 205.021305 45.884903 
L 203.405651 45.884903 
z
" clip-path="url(#pfc75b2e71d)" style="fill: #1f77b4"/>
   </g>
   <g id="patch_92">
    <path d="M 205.021305 273.312 
L 206.636959 273.312 
L 206.636959 19.872 
L 205.021305 19.872 
z
" clip-path="url(#pfc75b2e71d)" style="fill: #1f77b4"/>
   </g>
   <g id="patch_93">
    <path d="M 206.636959 273.312 
L 208.252613 273.312 
L 208.252613 49.601032 
L 206.636959 49.601032 
z
" clip-path="url(#pfc75b2e71d)" style="fill: #1f77b4"/>
   </g>
   <g id="patch_94">
    <path d="M 208.252613 273.312 
L 209.868267 273.312 
L 209.868267 48.857806 
L 208.252613 48.857806 
z
" clip-path="url(#pfc75b2e71d)" style="fill: #1f77b4"/>
   </g>
   <g id="patch_95">
    <path d="M 209.868267 273.312 
L 211.483921 273.312 
L 211.483921 33.99329 
L 209.868267 33.99329 
z
" clip-path="url(#pfc75b2e71d)" style="fill: #1f77b4"/>
   </g>
   <g id="patch_96">
    <path d="M 211.483921 273.312 
L 213.099575 273.312 
L 213.099575 65.952 
L 211.483921 65.952 
z
" clip-path="url(#pfc75b2e71d)" style="fill: #1f77b4"/>
   </g>
   <g id="patch_97">
    <path d="M 213.099575 273.312 
L 214.715228 273.312 
L 214.715228 37.709419 
L 213.099575 37.709419 
z
" clip-path="url(#pfc75b2e71d)" style="fill: #1f77b4"/>
   </g>
   <g id="patch_98">
    <path d="M 214.715228 273.312 
L 216.330882 273.312 
L 216.330882 53.317161 
L 214.715228 53.317161 
z
" clip-path="url(#pfc75b2e71d)" style="fill: #1f77b4"/>
   </g>
   <g id="patch_99">
    <path d="M 216.330882 273.312 
L 217.946536 273.312 
L 217.946536 22.844903 
L 216.330882 22.844903 
z
" clip-path="url(#pfc75b2e71d)" style="fill: #1f77b4"/>
   </g>
   <g id="patch_100">
    <path d="M 217.946536 273.312 
L 219.56219 273.312 
L 219.56219 36.222968 
L 217.946536 36.222968 
z
" clip-path="url(#pfc75b2e71d)" style="fill: #1f77b4"/>
   </g>
   <g id="patch_101">
    <path d="M 219.56219 273.312 
L 221.177844 273.312 
L 221.177844 39.195871 
L 219.56219 39.195871 
z
" clip-path="url(#pfc75b2e71d)" style="fill: #1f77b4"/>
   </g>
   <g id="patch_102">
    <path d="M 221.177844 273.312 
L 222.793498 273.312 
L 222.793498 48.857806 
L 221.177844 48.857806 
z
" clip-path="url(#pfc75b2e71d)" style="fill: #1f77b4"/>
   </g>
   <g id="patch_103">
    <path d="M 222.793498 273.312 
L 224.409152 273.312 
L 224.409152 22.101677 
L 222.793498 22.101677 
z
" clip-path="url(#pfc75b2e71d)" style="fill: #1f77b4"/>
   </g>
   <g id="patch_104">
    <path d="M 224.409152 273.312 
L 226.024806 273.312 
L 226.024806 57.776516 
L 224.409152 57.776516 
z
" clip-path="url(#pfc75b2e71d)" style="fill: #1f77b4"/>
   </g>
   <g id="patch_105">
    <path d="M 226.024806 273.312 
L 227.64046 273.312 
L 227.64046 36.222968 
L 226.024806 36.222968 
z
" clip-path="url(#pfc75b2e71d)" style="fill: #1f77b4"/>
   </g>
   <g id="patch_106">
    <path d="M 227.64046 273.312 
L 229.256113 273.312 
L 229.256113 58.519742 
L 227.64046 58.519742 
z
" clip-path="url(#pfc75b2e71d)" style="fill: #1f77b4"/>
   </g>
   <g id="patch_107">
    <path d="M 229.256113 273.312 
L 230.871767 273.312 
L 230.871767 22.101677 
L 229.256113 22.101677 
z
" clip-path="url(#pfc75b2e71d)" style="fill: #1f77b4"/>
   </g>
   <g id="patch_108">
    <path d="M 230.871767 273.312 
L 232.487421 273.312 
L 232.487421 32.506839 
L 230.871767 32.506839 
z
" clip-path="url(#pfc75b2e71d)" style="fill: #1f77b4"/>
   </g>
   <g id="patch_109">
    <path d="M 232.487421 273.312 
L 234.103075 273.312 
L 234.103075 57.776516 
L 232.487421 57.776516 
z
" clip-path="url(#pfc75b2e71d)" style="fill: #1f77b4"/>
   </g>
   <g id="patch_110">
    <path d="M 234.103075 273.312 
L 235.718729 273.312 
L 235.718729 36.966194 
L 234.103075 36.966194 
z
" clip-path="url(#pfc75b2e71d)" style="fill: #1f77b4"/>
   </g>
   <g id="patch_111">
    <path d="M 235.718729 273.312 
L 237.334383 273.312 
L 237.334383 27.304258 
L 235.718729 27.304258 
z
" clip-path="url(#pfc75b2e71d)" style="fill: #1f77b4"/>
   </g>
   <g id="patch_112">
    <path d="M 237.334383 273.312 
L 238.950037 273.312 
L 238.950037 67.438452 
L 237.334383 67.438452 
z
" clip-path="url(#pfc75b2e71d)" style="fill: #1f77b4"/>
   </g>
   <g id="patch_113">
    <path d="M 238.950037 273.312 
L 240.565691 273.312 
L 240.565691 48.857806 
L 238.950037 48.857806 
z
" clip-path="url(#pfc75b2e71d)" style="fill: #1f77b4"/>
   </g>
   <g id="patch_114">
    <path d="M 240.565691 273.312 
L 242.181344 273.312 
L 242.181344 23.588129 
L 240.565691 23.588129 
z
" clip-path="url(#pfc75b2e71d)" style="fill: #1f77b4"/>
   </g>
   <g id="patch_115">
    <path d="M 242.181344 273.312 
L 243.796998 273.312 
L 243.796998 43.655226 
L 242.181344 43.655226 
z
" clip-path="url(#pfc75b2e71d)" style="fill: #1f77b4"/>
   </g>
   <g id="patch_116">
    <path d="M 243.796998 273.312 
L 245.412652 273.312 
L 245.412652 60.006194 
L 243.796998 60.006194 
z
" clip-path="url(#pfc75b2e71d)" style="fill: #1f77b4"/>
   </g>
   <g id="patch_117">
    <path d="M 245.412652 273.312 
L 247.028306 273.312 
L 247.028306 54.060387 
L 245.412652 54.060387 
z
" clip-path="url(#pfc75b2e71d)" style="fill: #1f77b4"/>
   </g>
   <g id="patch_118">
    <path d="M 247.028306 273.312 
L 248.64396 273.312 
L 248.64396 30.277161 
L 247.028306 30.277161 
z
" clip-path="url(#pfc75b2e71d)" style="fill: #1f77b4"/>
   </g>
   <g id="patch_119">
    <path d="M 248.64396 273.312 
L 250.259614 273.312 
L 250.259614 51.83071 
L 248.64396 51.83071 
z
" clip-path="url(#pfc75b2e71d)" style="fill: #1f77b4"/>
   </g>
   <g id="patch_120">
    <path d="M 250.259614 273.312 
L 251.875268 273.312 
L 251.875268 42.912 
L 250.259614 42.912 
z
" clip-path="url(#pfc75b2e71d)" style="fill: #1f77b4"/>
   </g>
   <g id="patch_121">
    <path d="M 251.875268 273.312 
L 253.490922 273.312 
L 253.490922 49.601032 
L 251.875268 49.601032 
z
" clip-path="url(#pfc75b2e71d)" style="fill: #1f77b4"/>
   </g>
   <g id="patch_122">
    <path d="M 253.490922 273.312 
L 255.106575 273.312 
L 255.106575 29.533935 
L 253.490922 29.533935 
z
" clip-path="url(#pfc75b2e71d)" style="fill: #1f77b4"/>
   </g>
   <g id="patch_123">
    <path d="M 255.106575 273.312 
L 256.722229 273.312 
L 256.722229 52.573935 
L 255.106575 52.573935 
z
" clip-path="url(#pfc75b2e71d)" style="fill: #1f77b4"/>
   </g>
   <g id="patch_124">
    <path d="M 256.722229 273.312 
L 258.337883 273.312 
L 258.337883 54.803613 
L 256.722229 54.803613 
z
" clip-path="url(#pfc75b2e71d)" style="fill: #1f77b4"/>
   </g>
   <g id="patch_125">
    <path d="M 258.337883 273.312 
L 259.953537 273.312 
L 259.953537 54.803613 
L 258.337883 54.803613 
z
" clip-path="url(#pfc75b2e71d)" style="fill: #1f77b4"/>
   </g>
   <g id="patch_126">
    <path d="M 259.953537 273.312 
L 261.569191 273.312 
L 261.569191 45.884903 
L 259.953537 45.884903 
z
" clip-path="url(#pfc75b2e71d)" style="fill: #1f77b4"/>
   </g>
   <g id="patch_127">
    <path d="M 261.569191 273.312 
L 263.184845 273.312 
L 263.184845 64.465548 
L 261.569191 64.465548 
z
" clip-path="url(#pfc75b2e71d)" style="fill: #1f77b4"/>
   </g>
   <g id="patch_128">
    <path d="M 263.184845 273.312 
L 264.800499 273.312 
L 264.800499 66.695226 
L 263.184845 66.695226 
z
" clip-path="url(#pfc75b2e71d)" style="fill: #1f77b4"/>
   </g>
   <g id="patch_129">
    <path d="M 264.800499 273.312 
L 266.416153 273.312 
L 266.416153 73.384258 
L 264.800499 73.384258 
z
" clip-path="url(#pfc75b2e71d)" style="fill: #1f77b4"/>
   </g>
   <g id="patch_130">
    <path d="M 266.416153 273.312 
L 268.031806 273.312 
L 268.031806 74.87071 
L 266.416153 74.87071 
z
" clip-path="url(#pfc75b2e71d)" style="fill: #1f77b4"/>
   </g>
   <g id="patch_131">
    <path d="M 268.031806 273.312 
L 269.64746 273.312 
L 269.64746 45.884903 
L 268.031806 45.884903 
z
" clip-path="url(#pfc75b2e71d)" style="fill: #1f77b4"/>
   </g>
   <g id="patch_132">
    <path d="M 269.64746 273.312 
L 271.263114 273.312 
L 271.263114 68.181677 
L 269.64746 68.181677 
z
" clip-path="url(#pfc75b2e71d)" style="fill: #1f77b4"/>
   </g>
   <g id="patch_133">
    <path d="M 271.263114 273.312 
L 272.878768 273.312 
L 272.878768 57.03329 
L 271.263114 57.03329 
z
" clip-path="url(#pfc75b2e71d)" style="fill: #1f77b4"/>
   </g>
   <g id="patch_134">
    <path d="M 272.878768 273.312 
L 274.494422 273.312 
L 274.494422 77.843613 
L 272.878768 77.843613 
z
" clip-path="url(#pfc75b2e71d)" style="fill: #1f77b4"/>
   </g>
   <g id="patch_135">
    <path d="M 274.494422 273.312 
L 276.110076 273.312 
L 276.110076 60.006194 
L 274.494422 60.006194 
z
" clip-path="url(#pfc75b2e71d)" style="fill: #1f77b4"/>
   </g>
   <g id="patch_136">
    <path d="M 276.110076 273.312 
L 277.72573 273.312 
L 277.72573 48.857806 
L 276.110076 48.857806 
z
" clip-path="url(#pfc75b2e71d)" style="fill: #1f77b4"/>
   </g>
   <g id="patch_137">
    <path d="M 277.72573 273.312 
L 279.341384 273.312 
L 279.341384 80.816516 
L 277.72573 80.816516 
z
" clip-path="url(#pfc75b2e71d)" style="fill: #1f77b4"/>
   </g>
   <g id="patch_138">
    <path d="M 279.341384 273.312 
L 280.957038 273.312 
L 280.957038 86.019097 
L 279.341384 86.019097 
z
" clip-path="url(#pfc75b2e71d)" style="fill: #1f77b4"/>
   </g>
   <g id="patch_139">
    <path d="M 280.957038 273.312 
L 282.572691 273.312 
L 282.572691 78.586839 
L 280.957038 78.586839 
z
" clip-path="url(#pfc75b2e71d)" style="fill: #1f77b4"/>
   </g>
   <g id="patch_140">
    <path d="M 282.572691 273.312 
L 284.188345 273.312 
L 284.188345 65.208774 
L 282.572691 65.208774 
z
" clip-path="url(#pfc75b2e71d)" style="fill: #1f77b4"/>
   </g>
   <g id="patch_141">
    <path d="M 284.188345 273.312 
L 285.803999 273.312 
L 285.803999 74.127484 
L 284.188345 74.127484 
z
" clip-path="url(#pfc75b2e71d)" style="fill: #1f77b4"/>
   </g>
   <g id="patch_142">
    <path d="M 285.803999 273.312 
L 287.419653 273.312 
L 287.419653 104.599742 
L 285.803999 104.599742 
z
" clip-path="url(#pfc75b2e71d)" style="fill: #1f77b4"/>
   </g>
   <g id="patch_143">
    <path d="M 287.419653 273.312 
L 289.035307 273.312 
L 289.035307 86.019097 
L 287.419653 86.019097 
z
" clip-path="url(#pfc75b2e71d)" style="fill: #1f77b4"/>
   </g>
   <g id="patch_144">
    <path d="M 289.035307 273.312 
L 290.650961 273.312 
L 290.650961 90.478452 
L 289.035307 90.478452 
z
" clip-path="url(#pfc75b2e71d)" style="fill: #1f77b4"/>
   </g>
   <g id="patch_145">
    <path d="M 290.650961 273.312 
L 292.266615 273.312 
L 292.266615 88.992 
L 290.650961 88.992 
z
" clip-path="url(#pfc75b2e71d)" style="fill: #1f77b4"/>
   </g>
   <g id="patch_146">
    <path d="M 292.266615 273.312 
L 293.882269 273.312 
L 293.882269 62.235871 
L 292.266615 62.235871 
z
" clip-path="url(#pfc75b2e71d)" style="fill: #1f77b4"/>
   </g>
   <g id="patch_147">
    <path d="M 293.882269 273.312 
L 295.497922 273.312 
L 295.497922 112.032 
L 293.882269 112.032 
z
" clip-path="url(#pfc75b2e71d)" style="fill: #1f77b4"/>
   </g>
   <g id="patch_148">
    <path d="M 295.497922 273.312 
L 297.113576 273.312 
L 297.113576 101.626839 
L 295.497922 101.626839 
z
" clip-path="url(#pfc75b2e71d)" style="fill: #1f77b4"/>
   </g>
   <g id="patch_149">
    <path d="M 297.113576 273.312 
L 298.72923 273.312 
L 298.72923 95.681032 
L 297.113576 95.681032 
z
" clip-path="url(#pfc75b2e71d)" style="fill: #1f77b4"/>
   </g>
   <g id="patch_150">
    <path d="M 298.72923 273.312 
L 300.344884 273.312 
L 300.344884 119.464258 
L 298.72923 119.464258 
z
" clip-path="url(#pfc75b2e71d)" style="fill: #1f77b4"/>
   </g>
   <g id="patch_151">
    <path d="M 300.344884 273.312 
L 301.960538 273.312 
L 301.960538 91.221677 
L 300.344884 91.221677 
z
" clip-path="url(#pfc75b2e71d)" style="fill: #1f77b4"/>
   </g>
   <g id="patch_152">
    <path d="M 301.960538 273.312 
L 303.576192 273.312 
L 303.576192 104.599742 
L 301.960538 104.599742 
z
" clip-path="url(#pfc75b2e71d)" style="fill: #1f77b4"/>
   </g>
   <g id="patch_153">
    <path d="M 303.576192 273.312 
L 305.191846 273.312 
L 305.191846 109.059097 
L 303.576192 109.059097 
z
" clip-path="url(#pfc75b2e71d)" style="fill: #1f77b4"/>
   </g>
   <g id="patch_154">
    <path d="M 305.191846 273.312 
L 306.8075 273.312 
L 306.8075 114.261677 
L 305.191846 114.261677 
z
" clip-path="url(#pfc75b2e71d)" style="fill: #1f77b4"/>
   </g>
   <g id="patch_155">
    <path d="M 306.8075 273.312 
L 308.423153 273.312 
L 308.423153 118.721032 
L 306.8075 118.721032 
z
" clip-path="url(#pfc75b2e71d)" style="fill: #1f77b4"/>
   </g>
   <g id="patch_156">
    <path d="M 308.423153 273.312 
L 310.038807 273.312 
L 310.038807 117.234581 
L 308.423153 117.234581 
z
" clip-path="url(#pfc75b2e71d)" style="fill: #1f77b4"/>
   </g>
   <g id="patch_157">
    <path d="M 310.038807 273.312 
L 311.654461 273.312 
L 311.654461 117.977806 
L 310.038807 117.977806 
z
" clip-path="url(#pfc75b2e71d)" style="fill: #1f77b4"/>
   </g>
   <g id="patch_158">
    <path d="M 311.654461 273.312 
L 313.270115 273.312 
L 313.270115 120.95071 
L 311.654461 120.95071 
z
" clip-path="url(#pfc75b2e71d)" style="fill: #1f77b4"/>
   </g>
   <g id="patch_159">
    <path d="M 313.270115 273.312 
L 314.885769 273.312 
L 314.885769 134.328774 
L 313.270115 134.328774 
z
" clip-path="url(#pfc75b2e71d)" style="fill: #1f77b4"/>
   </g>
   <g id="patch_160">
    <path d="M 314.885769 273.312 
L 316.501423 273.312 
L 316.501423 135.072 
L 314.885769 135.072 
z
" clip-path="url(#pfc75b2e71d)" style="fill: #1f77b4"/>
   </g>
   <g id="patch_161">
    <path d="M 316.501423 273.312 
L 318.117077 273.312 
L 318.117077 126.15329 
L 316.501423 126.15329 
z
" clip-path="url(#pfc75b2e71d)" style="fill: #1f77b4"/>
   </g>
   <g id="patch_162">
    <path d="M 318.117077 273.312 
L 319.732731 273.312 
L 319.732731 146.963613 
L 318.117077 146.963613 
z
" clip-path="url(#pfc75b2e71d)" style="fill: #1f77b4"/>
   </g>
   <g id="patch_163">
    <path d="M 319.732731 273.312 
L 321.348385 273.312 
L 321.348385 152.166194 
L 319.732731 152.166194 
z
" clip-path="url(#pfc75b2e71d)" style="fill: #1f77b4"/>
   </g>
   <g id="patch_164">
    <path d="M 321.348385 273.312 
L 322.964038 273.312 
L 322.964038 153.652645 
L 321.348385 153.652645 
z
" clip-path="url(#pfc75b2e71d)" style="fill: #1f77b4"/>
   </g>
   <g id="patch_165">
    <path d="M 322.964038 273.312 
L 324.579692 273.312 
L 324.579692 139.531355 
L 322.964038 139.531355 
z
" clip-path="url(#pfc75b2e71d)" style="fill: #1f77b4"/>
   </g>
   <g id="patch_166">
    <path d="M 324.579692 273.312 
L 326.195346 273.312 
L 326.195346 155.139097 
L 324.579692 155.139097 
z
" clip-path="url(#pfc75b2e71d)" style="fill: #1f77b4"/>
   </g>
   <g id="patch_167">
    <path d="M 326.195346 273.312 
L 327.811 273.312 
L 327.811 157.368774 
L 326.195346 157.368774 
z
" clip-path="url(#pfc75b2e71d)" style="fill: #1f77b4"/>
   </g>
   <g id="patch_168">
    <path d="M 327.811 273.312 
L 329.426654 273.312 
L 329.426654 175.949419 
L 327.811 175.949419 
z
" clip-path="url(#pfc75b2e71d)" style="fill: #1f77b4"/>
   </g>
   <g id="patch_169">
    <path d="M 329.426654 273.312 
L 331.042308 273.312 
L 331.042308 158.112 
L 329.426654 158.112 
z
" clip-path="url(#pfc75b2e71d)" style="fill: #1f77b4"/>
   </g>
   <g id="patch_170">
    <path d="M 331.042308 273.312 
L 332.657962 273.312 
L 332.657962 168.517161 
L 331.042308 168.517161 
z
" clip-path="url(#pfc75b2e71d)" style="fill: #1f77b4"/>
   </g>
   <g id="patch_171">
    <path d="M 332.657962 273.312 
L 334.273616 273.312 
L 334.273616 166.287484 
L 332.657962 166.287484 
z
" clip-path="url(#pfc75b2e71d)" style="fill: #1f77b4"/>
   </g>
   <g id="patch_172">
    <path d="M 334.273616 273.312 
L 335.889269 273.312 
L 335.889269 182.638452 
L 334.273616 182.638452 
z
" clip-path="url(#pfc75b2e71d)" style="fill: #1f77b4"/>
   </g>
   <g id="patch_173">
    <path d="M 335.889269 273.312 
L 337.504923 273.312 
L 337.504923 167.773935 
L 335.889269 167.773935 
z
" clip-path="url(#pfc75b2e71d)" style="fill: #1f77b4"/>
   </g>
   <g id="patch_174">
    <path d="M 337.504923 273.312 
L 339.120577 273.312 
L 339.120577 178.179097 
L 337.504923 178.179097 
z
" clip-path="url(#pfc75b2e71d)" style="fill: #1f77b4"/>
   </g>
   <g id="patch_175">
    <path d="M 339.120577 273.312 
L 340.736231 273.312 
L 340.736231 180.408774 
L 339.120577 180.408774 
z
" clip-path="url(#pfc75b2e71d)" style="fill: #1f77b4"/>
   </g>
   <g id="patch_176">
    <path d="M 340.736231 273.312 
L 342.351885 273.312 
L 342.351885 185.611355 
L 340.736231 185.611355 
z
" clip-path="url(#pfc75b2e71d)" style="fill: #1f77b4"/>
   </g>
   <g id="patch_177">
    <path d="M 342.351885 273.312 
L 343.967539 273.312 
L 343.967539 185.611355 
L 342.351885 185.611355 
z
" clip-path="url(#pfc75b2e71d)" style="fill: #1f77b4"/>
   </g>
   <g id="patch_178">
    <path d="M 343.967539 273.312 
L 345.583193 273.312 
L 345.583193 190.07071 
L 343.967539 190.07071 
z
" clip-path="url(#pfc75b2e71d)" style="fill: #1f77b4"/>
   </g>
   <g id="patch_179">
    <path d="M 345.583193 273.312 
L 347.198847 273.312 
L 347.198847 191.557161 
L 345.583193 191.557161 
z
" clip-path="url(#pfc75b2e71d)" style="fill: #1f77b4"/>
   </g>
   <g id="patch_180">
    <path d="M 347.198847 273.312 
L 348.8145 273.312 
L 348.8145 188.584258 
L 347.198847 188.584258 
z
" clip-path="url(#pfc75b2e71d)" style="fill: #1f77b4"/>
   </g>
   <g id="patch_181">
    <path d="M 348.8145 273.312 
L 350.430154 273.312 
L 350.430154 198.246194 
L 348.8145 198.246194 
z
" clip-path="url(#pfc75b2e71d)" style="fill: #1f77b4"/>
   </g>
   <g id="patch_182">
    <path d="M 350.430154 273.312 
L 352.045808 273.312 
L 352.045808 201.962323 
L 350.430154 201.962323 
z
" clip-path="url(#pfc75b2e71d)" style="fill: #1f77b4"/>
   </g>
   <g id="patch_183">
    <path d="M 352.045808 273.312 
L 353.661462 273.312 
L 353.661462 196.759742 
L 352.045808 196.759742 
z
" clip-path="url(#pfc75b2e71d)" style="fill: #1f77b4"/>
   </g>
   <g id="patch_184">
    <path d="M 353.661462 273.312 
L 355.277116 273.312 
L 355.277116 216.826839 
L 353.661462 216.826839 
z
" clip-path="url(#pfc75b2e71d)" style="fill: #1f77b4"/>
   </g>
   <g id="patch_185">
    <path d="M 355.277116 273.312 
L 356.89277 273.312 
L 356.89277 210.881032 
L 355.277116 210.881032 
z
" clip-path="url(#pfc75b2e71d)" style="fill: #1f77b4"/>
   </g>
   <g id="patch_186">
    <path d="M 356.89277 273.312 
L 358.508424 273.312 
L 358.508424 221.286194 
L 356.89277 221.286194 
z
" clip-path="url(#pfc75b2e71d)" style="fill: #1f77b4"/>
   </g>
   <g id="patch_187">
    <path d="M 358.508424 273.312 
L 360.124078 273.312 
L 360.124078 223.515871 
L 358.508424 223.515871 
z
" clip-path="url(#pfc75b2e71d)" style="fill: #1f77b4"/>
   </g>
   <g id="patch_188">
    <path d="M 360.124078 273.312 
L 361.739732 273.312 
L 361.739732 219.799742 
L 360.124078 219.799742 
z
" clip-path="url(#pfc75b2e71d)" style="fill: #1f77b4"/>
   </g>
   <g id="patch_189">
    <path d="M 361.739732 273.312 
L 363.355385 273.312 
L 363.355385 223.515871 
L 361.739732 223.515871 
z
" clip-path="url(#pfc75b2e71d)" style="fill: #1f77b4"/>
   </g>
   <g id="patch_190">
    <path d="M 363.355385 273.312 
L 364.971039 273.312 
L 364.971039 228.718452 
L 363.355385 228.718452 
z
" clip-path="url(#pfc75b2e71d)" style="fill: #1f77b4"/>
   </g>
   <g id="patch_191">
    <path d="M 364.971039 273.312 
L 366.586693 273.312 
L 366.586693 234.664258 
L 364.971039 234.664258 
z
" clip-path="url(#pfc75b2e71d)" style="fill: #1f77b4"/>
   </g>
   <g id="patch_192">
    <path d="M 366.586693 273.312 
L 368.202347 273.312 
L 368.202347 222.029419 
L 366.586693 222.029419 
z
" clip-path="url(#pfc75b2e71d)" style="fill: #1f77b4"/>
   </g>
   <g id="patch_193">
    <path d="M 368.202347 273.312 
L 369.818001 273.312 
L 369.818001 244.326194 
L 368.202347 244.326194 
z
" clip-path="url(#pfc75b2e71d)" style="fill: #1f77b4"/>
   </g>
   <g id="patch_194">
    <path d="M 369.818001 273.312 
L 371.433655 273.312 
L 371.433655 244.326194 
L 369.818001 244.326194 
z
" clip-path="url(#pfc75b2e71d)" style="fill: #1f77b4"/>
   </g>
   <g id="patch_195">
    <path d="M 371.433655 273.312 
L 373.049309 273.312 
L 373.049309 247.299097 
L 371.433655 247.299097 
z
" clip-path="url(#pfc75b2e71d)" style="fill: #1f77b4"/>
   </g>
   <g id="patch_196">
    <path d="M 373.049309 273.312 
L 374.664963 273.312 
L 374.664963 248.785548 
L 373.049309 248.785548 
z
" clip-path="url(#pfc75b2e71d)" style="fill: #1f77b4"/>
   </g>
   <g id="patch_197">
    <path d="M 374.664963 273.312 
L 376.280616 273.312 
L 376.280616 249.528774 
L 374.664963 249.528774 
z
" clip-path="url(#pfc75b2e71d)" style="fill: #1f77b4"/>
   </g>
   <g id="patch_198">
    <path d="M 376.280616 273.312 
L 377.89627 273.312 
L 377.89627 258.447484 
L 376.280616 258.447484 
z
" clip-path="url(#pfc75b2e71d)" style="fill: #1f77b4"/>
   </g>
   <g id="patch_199">
    <path d="M 377.89627 273.312 
L 379.511924 273.312 
L 379.511924 262.163613 
L 377.89627 262.163613 
z
" clip-path="url(#pfc75b2e71d)" style="fill: #1f77b4"/>
   </g>
   <g id="patch_200">
    <path d="M 379.511924 273.312 
L 381.127578 273.312 
L 381.127578 261.420387 
L 379.511924 261.420387 
z
" clip-path="url(#pfc75b2e71d)" style="fill: #1f77b4"/>
   </g>
   <g id="patch_201">
    <path d="M 381.127578 273.312 
L 382.743232 273.312 
L 382.743232 268.109419 
L 381.127578 268.109419 
z
" clip-path="url(#pfc75b2e71d)" style="fill: #1f77b4"/>
   </g>
   <g id="patch_202">
    <path d="M 382.743232 273.312 
L 384.358886 273.312 
L 384.358886 268.852645 
L 382.743232 268.852645 
z
" clip-path="url(#pfc75b2e71d)" style="fill: #1f77b4"/>
   </g>
   <g id="matplotlib.axis_1">
    <g id="xtick_1">
     <g id="line2d_1">
      <defs>
       <path id="m6a18a17e35" d="M 0 0 
L 0 3.5 
" style="stroke: #000000; stroke-width: 0.8"/>
      </defs>
      <g>
       <use xlink:href="#m6a18a17e35" x="60.013977" y="273.312" style="stroke: #000000; stroke-width: 0.8"/>
      </g>
     </g>
     <g id="text_1">
      <!-- 0.0 -->
      <g transform="translate(52.062415 287.910437)scale(0.1 -0.1)">
       <defs>
        <path id="DejaVuSans-30" d="M 2034 4250 
Q 1547 4250 1301 3770 
Q 1056 3291 1056 2328 
Q 1056 1369 1301 889 
Q 1547 409 2034 409 
Q 2525 409 2770 889 
Q 3016 1369 3016 2328 
Q 3016 3291 2770 3770 
Q 2525 4250 2034 4250 
z
M 2034 4750 
Q 2819 4750 3233 4129 
Q 3647 3509 3647 2328 
Q 3647 1150 3233 529 
Q 2819 -91 2034 -91 
Q 1250 -91 836 529 
Q 422 1150 422 2328 
Q 422 3509 836 4129 
Q 1250 4750 2034 4750 
z
" transform="scale(0.015625)"/>
        <path id="DejaVuSans-2e" d="M 684 794 
L 1344 794 
L 1344 0 
L 684 0 
L 684 794 
z
" transform="scale(0.015625)"/>
       </defs>
       <use xlink:href="#DejaVuSans-30"/>
       <use xlink:href="#DejaVuSans-2e" x="63.623047"/>
       <use xlink:href="#DejaVuSans-30" x="95.410156"/>
      </g>
     </g>
    </g>
    <g id="xtick_2">
     <g id="line2d_2">
      <g>
       <use xlink:href="#m6a18a17e35" x="101.350278" y="273.312" style="stroke: #000000; stroke-width: 0.8"/>
      </g>
     </g>
     <g id="text_2">
      <!-- 0.2 -->
      <g transform="translate(93.398715 287.910437)scale(0.1 -0.1)">
       <defs>
        <path id="DejaVuSans-32" d="M 1228 531 
L 3431 531 
L 3431 0 
L 469 0 
L 469 531 
Q 828 903 1448 1529 
Q 2069 2156 2228 2338 
Q 2531 2678 2651 2914 
Q 2772 3150 2772 3378 
Q 2772 3750 2511 3984 
Q 2250 4219 1831 4219 
Q 1534 4219 1204 4116 
Q 875 4013 500 3803 
L 500 4441 
Q 881 4594 1212 4672 
Q 1544 4750 1819 4750 
Q 2544 4750 2975 4387 
Q 3406 4025 3406 3419 
Q 3406 3131 3298 2873 
Q 3191 2616 2906 2266 
Q 2828 2175 2409 1742 
Q 1991 1309 1228 531 
z
" transform="scale(0.015625)"/>
       </defs>
       <use xlink:href="#DejaVuSans-30"/>
       <use xlink:href="#DejaVuSans-2e" x="63.623047"/>
       <use xlink:href="#DejaVuSans-32" x="95.410156"/>
      </g>
     </g>
    </g>
    <g id="xtick_3">
     <g id="line2d_3">
      <g>
       <use xlink:href="#m6a18a17e35" x="142.686578" y="273.312" style="stroke: #000000; stroke-width: 0.8"/>
      </g>
     </g>
     <g id="text_3">
      <!-- 0.4 -->
      <g transform="translate(134.735016 287.910437)scale(0.1 -0.1)">
       <defs>
        <path id="DejaVuSans-34" d="M 2419 4116 
L 825 1625 
L 2419 1625 
L 2419 4116 
z
M 2253 4666 
L 3047 4666 
L 3047 1625 
L 3713 1625 
L 3713 1100 
L 3047 1100 
L 3047 0 
L 2419 0 
L 2419 1100 
L 313 1100 
L 313 1709 
L 2253 4666 
z
" transform="scale(0.015625)"/>
       </defs>
       <use xlink:href="#DejaVuSans-30"/>
       <use xlink:href="#DejaVuSans-2e" x="63.623047"/>
       <use xlink:href="#DejaVuSans-34" x="95.410156"/>
      </g>
     </g>
    </g>
    <g id="xtick_4">
     <g id="line2d_4">
      <g>
       <use xlink:href="#m6a18a17e35" x="184.022879" y="273.312" style="stroke: #000000; stroke-width: 0.8"/>
      </g>
     </g>
     <g id="text_4">
      <!-- 0.6 -->
      <g transform="translate(176.071316 287.910437)scale(0.1 -0.1)">
       <defs>
        <path id="DejaVuSans-36" d="M 2113 2584 
Q 1688 2584 1439 2293 
Q 1191 2003 1191 1497 
Q 1191 994 1439 701 
Q 1688 409 2113 409 
Q 2538 409 2786 701 
Q 3034 994 3034 1497 
Q 3034 2003 2786 2293 
Q 2538 2584 2113 2584 
z
M 3366 4563 
L 3366 3988 
Q 3128 4100 2886 4159 
Q 2644 4219 2406 4219 
Q 1781 4219 1451 3797 
Q 1122 3375 1075 2522 
Q 1259 2794 1537 2939 
Q 1816 3084 2150 3084 
Q 2853 3084 3261 2657 
Q 3669 2231 3669 1497 
Q 3669 778 3244 343 
Q 2819 -91 2113 -91 
Q 1303 -91 875 529 
Q 447 1150 447 2328 
Q 447 3434 972 4092 
Q 1497 4750 2381 4750 
Q 2619 4750 2861 4703 
Q 3103 4656 3366 4563 
z
" transform="scale(0.015625)"/>
       </defs>
       <use xlink:href="#DejaVuSans-30"/>
       <use xlink:href="#DejaVuSans-2e" x="63.623047"/>
       <use xlink:href="#DejaVuSans-36" x="95.410156"/>
      </g>
     </g>
    </g>
    <g id="xtick_5">
     <g id="line2d_5">
      <g>
       <use xlink:href="#m6a18a17e35" x="225.35918" y="273.312" style="stroke: #000000; stroke-width: 0.8"/>
      </g>
     </g>
     <g id="text_5">
      <!-- 0.8 -->
      <g transform="translate(217.407617 287.910437)scale(0.1 -0.1)">
       <defs>
        <path id="DejaVuSans-38" d="M 2034 2216 
Q 1584 2216 1326 1975 
Q 1069 1734 1069 1313 
Q 1069 891 1326 650 
Q 1584 409 2034 409 
Q 2484 409 2743 651 
Q 3003 894 3003 1313 
Q 3003 1734 2745 1975 
Q 2488 2216 2034 2216 
z
M 1403 2484 
Q 997 2584 770 2862 
Q 544 3141 544 3541 
Q 544 4100 942 4425 
Q 1341 4750 2034 4750 
Q 2731 4750 3128 4425 
Q 3525 4100 3525 3541 
Q 3525 3141 3298 2862 
Q 3072 2584 2669 2484 
Q 3125 2378 3379 2068 
Q 3634 1759 3634 1313 
Q 3634 634 3220 271 
Q 2806 -91 2034 -91 
Q 1263 -91 848 271 
Q 434 634 434 1313 
Q 434 1759 690 2068 
Q 947 2378 1403 2484 
z
M 1172 3481 
Q 1172 3119 1398 2916 
Q 1625 2713 2034 2713 
Q 2441 2713 2670 2916 
Q 2900 3119 2900 3481 
Q 2900 3844 2670 4047 
Q 2441 4250 2034 4250 
Q 1625 4250 1398 4047 
Q 1172 3844 1172 3481 
z
" transform="scale(0.015625)"/>
       </defs>
       <use xlink:href="#DejaVuSans-30"/>
       <use xlink:href="#DejaVuSans-2e" x="63.623047"/>
       <use xlink:href="#DejaVuSans-38" x="95.410156"/>
      </g>
     </g>
    </g>
    <g id="xtick_6">
     <g id="line2d_6">
      <g>
       <use xlink:href="#m6a18a17e35" x="266.69548" y="273.312" style="stroke: #000000; stroke-width: 0.8"/>
      </g>
     </g>
     <g id="text_6">
      <!-- 1.0 -->
      <g transform="translate(258.743918 287.910437)scale(0.1 -0.1)">
       <defs>
        <path id="DejaVuSans-31" d="M 794 531 
L 1825 531 
L 1825 4091 
L 703 3866 
L 703 4441 
L 1819 4666 
L 2450 4666 
L 2450 531 
L 3481 531 
L 3481 0 
L 794 0 
L 794 531 
z
" transform="scale(0.015625)"/>
       </defs>
       <use xlink:href="#DejaVuSans-31"/>
       <use xlink:href="#DejaVuSans-2e" x="63.623047"/>
       <use xlink:href="#DejaVuSans-30" x="95.410156"/>
      </g>
     </g>
    </g>
    <g id="xtick_7">
     <g id="line2d_7">
      <g>
       <use xlink:href="#m6a18a17e35" x="308.031781" y="273.312" style="stroke: #000000; stroke-width: 0.8"/>
      </g>
     </g>
     <g id="text_7">
      <!-- 1.2 -->
      <g transform="translate(300.080218 287.910437)scale(0.1 -0.1)">
       <use xlink:href="#DejaVuSans-31"/>
       <use xlink:href="#DejaVuSans-2e" x="63.623047"/>
       <use xlink:href="#DejaVuSans-32" x="95.410156"/>
      </g>
     </g>
    </g>
    <g id="xtick_8">
     <g id="line2d_8">
      <g>
       <use xlink:href="#m6a18a17e35" x="349.368081" y="273.312" style="stroke: #000000; stroke-width: 0.8"/>
      </g>
     </g>
     <g id="text_8">
      <!-- 1.4 -->
      <g transform="translate(341.416519 287.910437)scale(0.1 -0.1)">
       <use xlink:href="#DejaVuSans-31"/>
       <use xlink:href="#DejaVuSans-2e" x="63.623047"/>
       <use xlink:href="#DejaVuSans-34" x="95.410156"/>
      </g>
     </g>
    </g>
    <g id="xtick_9">
     <g id="line2d_9">
      <g>
       <use xlink:href="#m6a18a17e35" x="390.704382" y="273.312" style="stroke: #000000; stroke-width: 0.8"/>
      </g>
     </g>
     <g id="text_9">
      <!-- 1.6 -->
      <g transform="translate(382.752819 287.910437)scale(0.1 -0.1)">
       <use xlink:href="#DejaVuSans-31"/>
       <use xlink:href="#DejaVuSans-2e" x="63.623047"/>
       <use xlink:href="#DejaVuSans-36" x="95.410156"/>
      </g>
     </g>
    </g>
    <g id="text_10">
     <!-- Angle with normal (rad) -->
     <g transform="translate(163.023281 301.588562)scale(0.1 -0.1)">
      <defs>
       <path id="DejaVuSans-41" d="M 2188 4044 
L 1331 1722 
L 3047 1722 
L 2188 4044 
z
M 1831 4666 
L 2547 4666 
L 4325 0 
L 3669 0 
L 3244 1197 
L 1141 1197 
L 716 0 
L 50 0 
L 1831 4666 
z
" transform="scale(0.015625)"/>
       <path id="DejaVuSans-6e" d="M 3513 2113 
L 3513 0 
L 2938 0 
L 2938 2094 
Q 2938 2591 2744 2837 
Q 2550 3084 2163 3084 
Q 1697 3084 1428 2787 
Q 1159 2491 1159 1978 
L 1159 0 
L 581 0 
L 581 3500 
L 1159 3500 
L 1159 2956 
Q 1366 3272 1645 3428 
Q 1925 3584 2291 3584 
Q 2894 3584 3203 3211 
Q 3513 2838 3513 2113 
z
" transform="scale(0.015625)"/>
       <path id="DejaVuSans-67" d="M 2906 1791 
Q 2906 2416 2648 2759 
Q 2391 3103 1925 3103 
Q 1463 3103 1205 2759 
Q 947 2416 947 1791 
Q 947 1169 1205 825 
Q 1463 481 1925 481 
Q 2391 481 2648 825 
Q 2906 1169 2906 1791 
z
M 3481 434 
Q 3481 -459 3084 -895 
Q 2688 -1331 1869 -1331 
Q 1566 -1331 1297 -1286 
Q 1028 -1241 775 -1147 
L 775 -588 
Q 1028 -725 1275 -790 
Q 1522 -856 1778 -856 
Q 2344 -856 2625 -561 
Q 2906 -266 2906 331 
L 2906 616 
Q 2728 306 2450 153 
Q 2172 0 1784 0 
Q 1141 0 747 490 
Q 353 981 353 1791 
Q 353 2603 747 3093 
Q 1141 3584 1784 3584 
Q 2172 3584 2450 3431 
Q 2728 3278 2906 2969 
L 2906 3500 
L 3481 3500 
L 3481 434 
z
" transform="scale(0.015625)"/>
       <path id="DejaVuSans-6c" d="M 603 4863 
L 1178 4863 
L 1178 0 
L 603 0 
L 603 4863 
z
" transform="scale(0.015625)"/>
       <path id="DejaVuSans-65" d="M 3597 1894 
L 3597 1613 
L 953 1613 
Q 991 1019 1311 708 
Q 1631 397 2203 397 
Q 2534 397 2845 478 
Q 3156 559 3463 722 
L 3463 178 
Q 3153 47 2828 -22 
Q 2503 -91 2169 -91 
Q 1331 -91 842 396 
Q 353 884 353 1716 
Q 353 2575 817 3079 
Q 1281 3584 2069 3584 
Q 2775 3584 3186 3129 
Q 3597 2675 3597 1894 
z
M 3022 2063 
Q 3016 2534 2758 2815 
Q 2500 3097 2075 3097 
Q 1594 3097 1305 2825 
Q 1016 2553 972 2059 
L 3022 2063 
z
" transform="scale(0.015625)"/>
       <path id="DejaVuSans-20" transform="scale(0.015625)"/>
       <path id="DejaVuSans-77" d="M 269 3500 
L 844 3500 
L 1563 769 
L 2278 3500 
L 2956 3500 
L 3675 769 
L 4391 3500 
L 4966 3500 
L 4050 0 
L 3372 0 
L 2619 2869 
L 1863 0 
L 1184 0 
L 269 3500 
z
" transform="scale(0.015625)"/>
       <path id="DejaVuSans-69" d="M 603 3500 
L 1178 3500 
L 1178 0 
L 603 0 
L 603 3500 
z
M 603 4863 
L 1178 4863 
L 1178 4134 
L 603 4134 
L 603 4863 
z
" transform="scale(0.015625)"/>
       <path id="DejaVuSans-74" d="M 1172 4494 
L 1172 3500 
L 2356 3500 
L 2356 3053 
L 1172 3053 
L 1172 1153 
Q 1172 725 1289 603 
Q 1406 481 1766 481 
L 2356 481 
L 2356 0 
L 1766 0 
Q 1100 0 847 248 
Q 594 497 594 1153 
L 594 3053 
L 172 3053 
L 172 3500 
L 594 3500 
L 594 4494 
L 1172 4494 
z
" transform="scale(0.015625)"/>
       <path id="DejaVuSans-68" d="M 3513 2113 
L 3513 0 
L 2938 0 
L 2938 2094 
Q 2938 2591 2744 2837 
Q 2550 3084 2163 3084 
Q 1697 3084 1428 2787 
Q 1159 2491 1159 1978 
L 1159 0 
L 581 0 
L 581 4863 
L 1159 4863 
L 1159 2956 
Q 1366 3272 1645 3428 
Q 1925 3584 2291 3584 
Q 2894 3584 3203 3211 
Q 3513 2838 3513 2113 
z
" transform="scale(0.015625)"/>
       <path id="DejaVuSans-6f" d="M 1959 3097 
Q 1497 3097 1228 2736 
Q 959 2375 959 1747 
Q 959 1119 1226 758 
Q 1494 397 1959 397 
Q 2419 397 2687 759 
Q 2956 1122 2956 1747 
Q 2956 2369 2687 2733 
Q 2419 3097 1959 3097 
z
M 1959 3584 
Q 2709 3584 3137 3096 
Q 3566 2609 3566 1747 
Q 3566 888 3137 398 
Q 2709 -91 1959 -91 
Q 1206 -91 779 398 
Q 353 888 353 1747 
Q 353 2609 779 3096 
Q 1206 3584 1959 3584 
z
" transform="scale(0.015625)"/>
       <path id="DejaVuSans-72" d="M 2631 2963 
Q 2534 3019 2420 3045 
Q 2306 3072 2169 3072 
Q 1681 3072 1420 2755 
Q 1159 2438 1159 1844 
L 1159 0 
L 581 0 
L 581 3500 
L 1159 3500 
L 1159 2956 
Q 1341 3275 1631 3429 
Q 1922 3584 2338 3584 
Q 2397 3584 2469 3576 
Q 2541 3569 2628 3553 
L 2631 2963 
z
" transform="scale(0.015625)"/>
       <path id="DejaVuSans-6d" d="M 3328 2828 
Q 3544 3216 3844 3400 
Q 4144 3584 4550 3584 
Q 5097 3584 5394 3201 
Q 5691 2819 5691 2113 
L 5691 0 
L 5113 0 
L 5113 2094 
Q 5113 2597 4934 2840 
Q 4756 3084 4391 3084 
Q 3944 3084 3684 2787 
Q 3425 2491 3425 1978 
L 3425 0 
L 2847 0 
L 2847 2094 
Q 2847 2600 2669 2842 
Q 2491 3084 2119 3084 
Q 1678 3084 1418 2786 
Q 1159 2488 1159 1978 
L 1159 0 
L 581 0 
L 581 3500 
L 1159 3500 
L 1159 2956 
Q 1356 3278 1631 3431 
Q 1906 3584 2284 3584 
Q 2666 3584 2933 3390 
Q 3200 3197 3328 2828 
z
" transform="scale(0.015625)"/>
       <path id="DejaVuSans-61" d="M 2194 1759 
Q 1497 1759 1228 1600 
Q 959 1441 959 1056 
Q 959 750 1161 570 
Q 1363 391 1709 391 
Q 2188 391 2477 730 
Q 2766 1069 2766 1631 
L 2766 1759 
L 2194 1759 
z
M 3341 1997 
L 3341 0 
L 2766 0 
L 2766 531 
Q 2569 213 2275 61 
Q 1981 -91 1556 -91 
Q 1019 -91 701 211 
Q 384 513 384 1019 
Q 384 1609 779 1909 
Q 1175 2209 1959 2209 
L 2766 2209 
L 2766 2266 
Q 2766 2663 2505 2880 
Q 2244 3097 1772 3097 
Q 1472 3097 1187 3025 
Q 903 2953 641 2809 
L 641 3341 
Q 956 3463 1253 3523 
Q 1550 3584 1831 3584 
Q 2591 3584 2966 3190 
Q 3341 2797 3341 1997 
z
" transform="scale(0.015625)"/>
       <path id="DejaVuSans-28" d="M 1984 4856 
Q 1566 4138 1362 3434 
Q 1159 2731 1159 2009 
Q 1159 1288 1364 580 
Q 1569 -128 1984 -844 
L 1484 -844 
Q 1016 -109 783 600 
Q 550 1309 550 2009 
Q 550 2706 781 3412 
Q 1013 4119 1484 4856 
L 1984 4856 
z
" transform="scale(0.015625)"/>
       <path id="DejaVuSans-64" d="M 2906 2969 
L 2906 4863 
L 3481 4863 
L 3481 0 
L 2906 0 
L 2906 525 
Q 2725 213 2448 61 
Q 2172 -91 1784 -91 
Q 1150 -91 751 415 
Q 353 922 353 1747 
Q 353 2572 751 3078 
Q 1150 3584 1784 3584 
Q 2172 3584 2448 3432 
Q 2725 3281 2906 2969 
z
M 947 1747 
Q 947 1113 1208 752 
Q 1469 391 1925 391 
Q 2381 391 2643 752 
Q 2906 1113 2906 1747 
Q 2906 2381 2643 2742 
Q 2381 3103 1925 3103 
Q 1469 3103 1208 2742 
Q 947 2381 947 1747 
z
" transform="scale(0.015625)"/>
       <path id="DejaVuSans-29" d="M 513 4856 
L 1013 4856 
Q 1481 4119 1714 3412 
Q 1947 2706 1947 2009 
Q 1947 1309 1714 600 
Q 1481 -109 1013 -844 
L 513 -844 
Q 928 -128 1133 580 
Q 1338 1288 1338 2009 
Q 1338 2731 1133 3434 
Q 928 4138 513 4856 
z
" transform="scale(0.015625)"/>
      </defs>
      <use xlink:href="#DejaVuSans-41"/>
      <use xlink:href="#DejaVuSans-6e" x="68.408203"/>
      <use xlink:href="#DejaVuSans-67" x="131.787109"/>
      <use xlink:href="#DejaVuSans-6c" x="195.263672"/>
      <use xlink:href="#DejaVuSans-65" x="223.046875"/>
      <use xlink:href="#DejaVuSans-20" x="284.570312"/>
      <use xlink:href="#DejaVuSans-77" x="316.357422"/>
      <use xlink:href="#DejaVuSans-69" x="398.144531"/>
      <use xlink:href="#DejaVuSans-74" x="425.927734"/>
      <use xlink:href="#DejaVuSans-68" x="465.136719"/>
      <use xlink:href="#DejaVuSans-20" x="528.515625"/>
      <use xlink:href="#DejaVuSans-6e" x="560.302734"/>
      <use xlink:href="#DejaVuSans-6f" x="623.681641"/>
      <use xlink:href="#DejaVuSans-72" x="684.863281"/>
      <use xlink:href="#DejaVuSans-6d" x="724.226562"/>
      <use xlink:href="#DejaVuSans-61" x="821.638672"/>
      <use xlink:href="#DejaVuSans-6c" x="882.917969"/>
      <use xlink:href="#DejaVuSans-20" x="910.701172"/>
      <use xlink:href="#DejaVuSans-28" x="942.488281"/>
      <use xlink:href="#DejaVuSans-72" x="981.501953"/>
      <use xlink:href="#DejaVuSans-61" x="1022.615234"/>
      <use xlink:href="#DejaVuSans-64" x="1083.894531"/>
      <use xlink:href="#DejaVuSans-29" x="1147.371094"/>
     </g>
    </g>
   </g>
   <g id="matplotlib.axis_2">
    <g id="ytick_1">
     <g id="line2d_10">
      <defs>
       <path id="mbe8b81e344" d="M 0 0 
L -3.5 0 
" style="stroke: #000000; stroke-width: 0.8"/>
      </defs>
      <g>
       <use xlink:href="#mbe8b81e344" x="43.78125" y="273.312" style="stroke: #000000; stroke-width: 0.8"/>
      </g>
     </g>
     <g id="text_11">
      <!-- 0.0 -->
      <g transform="translate(20.878125 277.111219)scale(0.1 -0.1)">
       <use xlink:href="#DejaVuSans-30"/>
       <use xlink:href="#DejaVuSans-2e" x="63.623047"/>
       <use xlink:href="#DejaVuSans-30" x="95.410156"/>
      </g>
     </g>
    </g>
    <g id="ytick_2">
     <g id="line2d_11">
      <g>
       <use xlink:href="#mbe8b81e344" x="43.78125" y="226.832924" style="stroke: #000000; stroke-width: 0.8"/>
      </g>
     </g>
     <g id="text_12">
      <!-- 0.2 -->
      <g transform="translate(20.878125 230.632143)scale(0.1 -0.1)">
       <use xlink:href="#DejaVuSans-30"/>
       <use xlink:href="#DejaVuSans-2e" x="63.623047"/>
       <use xlink:href="#DejaVuSans-32" x="95.410156"/>
      </g>
     </g>
    </g>
    <g id="ytick_3">
     <g id="line2d_12">
      <g>
       <use xlink:href="#mbe8b81e344" x="43.78125" y="180.353848" style="stroke: #000000; stroke-width: 0.8"/>
      </g>
     </g>
     <g id="text_13">
      <!-- 0.4 -->
      <g transform="translate(20.878125 184.153067)scale(0.1 -0.1)">
       <use xlink:href="#DejaVuSans-30"/>
       <use xlink:href="#DejaVuSans-2e" x="63.623047"/>
       <use xlink:href="#DejaVuSans-34" x="95.410156"/>
      </g>
     </g>
    </g>
    <g id="ytick_4">
     <g id="line2d_13">
      <g>
       <use xlink:href="#mbe8b81e344" x="43.78125" y="133.874772" style="stroke: #000000; stroke-width: 0.8"/>
      </g>
     </g>
     <g id="text_14">
      <!-- 0.6 -->
      <g transform="translate(20.878125 137.673991)scale(0.1 -0.1)">
       <use xlink:href="#DejaVuSans-30"/>
       <use xlink:href="#DejaVuSans-2e" x="63.623047"/>
       <use xlink:href="#DejaVuSans-36" x="95.410156"/>
      </g>
     </g>
    </g>
    <g id="ytick_5">
     <g id="line2d_14">
      <g>
       <use xlink:href="#mbe8b81e344" x="43.78125" y="87.395696" style="stroke: #000000; stroke-width: 0.8"/>
      </g>
     </g>
     <g id="text_15">
      <!-- 0.8 -->
      <g transform="translate(20.878125 91.194915)scale(0.1 -0.1)">
       <use xlink:href="#DejaVuSans-30"/>
       <use xlink:href="#DejaVuSans-2e" x="63.623047"/>
       <use xlink:href="#DejaVuSans-38" x="95.410156"/>
      </g>
     </g>
    </g>
    <g id="ytick_6">
     <g id="line2d_15">
      <g>
       <use xlink:href="#mbe8b81e344" x="43.78125" y="40.91662" style="stroke: #000000; stroke-width: 0.8"/>
      </g>
     </g>
     <g id="text_16">
      <!-- 1.0 -->
      <g transform="translate(20.878125 44.715839)scale(0.1 -0.1)">
       <use xlink:href="#DejaVuSans-31"/>
       <use xlink:href="#DejaVuSans-2e" x="63.623047"/>
       <use xlink:href="#DejaVuSans-30" x="95.410156"/>
      </g>
     </g>
    </g>
    <g id="text_17">
     <!-- Probability density -->
     <g transform="translate(14.798438 186.606781)rotate(-90)scale(0.1 -0.1)">
      <defs>
       <path id="DejaVuSans-50" d="M 1259 4147 
L 1259 2394 
L 2053 2394 
Q 2494 2394 2734 2622 
Q 2975 2850 2975 3272 
Q 2975 3691 2734 3919 
Q 2494 4147 2053 4147 
L 1259 4147 
z
M 628 4666 
L 2053 4666 
Q 2838 4666 3239 4311 
Q 3641 3956 3641 3272 
Q 3641 2581 3239 2228 
Q 2838 1875 2053 1875 
L 1259 1875 
L 1259 0 
L 628 0 
L 628 4666 
z
" transform="scale(0.015625)"/>
       <path id="DejaVuSans-62" d="M 3116 1747 
Q 3116 2381 2855 2742 
Q 2594 3103 2138 3103 
Q 1681 3103 1420 2742 
Q 1159 2381 1159 1747 
Q 1159 1113 1420 752 
Q 1681 391 2138 391 
Q 2594 391 2855 752 
Q 3116 1113 3116 1747 
z
M 1159 2969 
Q 1341 3281 1617 3432 
Q 1894 3584 2278 3584 
Q 2916 3584 3314 3078 
Q 3713 2572 3713 1747 
Q 3713 922 3314 415 
Q 2916 -91 2278 -91 
Q 1894 -91 1617 61 
Q 1341 213 1159 525 
L 1159 0 
L 581 0 
L 581 4863 
L 1159 4863 
L 1159 2969 
z
" transform="scale(0.015625)"/>
       <path id="DejaVuSans-79" d="M 2059 -325 
Q 1816 -950 1584 -1140 
Q 1353 -1331 966 -1331 
L 506 -1331 
L 506 -850 
L 844 -850 
Q 1081 -850 1212 -737 
Q 1344 -625 1503 -206 
L 1606 56 
L 191 3500 
L 800 3500 
L 1894 763 
L 2988 3500 
L 3597 3500 
L 2059 -325 
z
" transform="scale(0.015625)"/>
       <path id="DejaVuSans-73" d="M 2834 3397 
L 2834 2853 
Q 2591 2978 2328 3040 
Q 2066 3103 1784 3103 
Q 1356 3103 1142 2972 
Q 928 2841 928 2578 
Q 928 2378 1081 2264 
Q 1234 2150 1697 2047 
L 1894 2003 
Q 2506 1872 2764 1633 
Q 3022 1394 3022 966 
Q 3022 478 2636 193 
Q 2250 -91 1575 -91 
Q 1294 -91 989 -36 
Q 684 19 347 128 
L 347 722 
Q 666 556 975 473 
Q 1284 391 1588 391 
Q 1994 391 2212 530 
Q 2431 669 2431 922 
Q 2431 1156 2273 1281 
Q 2116 1406 1581 1522 
L 1381 1569 
Q 847 1681 609 1914 
Q 372 2147 372 2553 
Q 372 3047 722 3315 
Q 1072 3584 1716 3584 
Q 2034 3584 2315 3537 
Q 2597 3491 2834 3397 
z
" transform="scale(0.015625)"/>
      </defs>
      <use xlink:href="#DejaVuSans-50"/>
      <use xlink:href="#DejaVuSans-72" x="58.552734"/>
      <use xlink:href="#DejaVuSans-6f" x="97.416016"/>
      <use xlink:href="#DejaVuSans-62" x="158.597656"/>
      <use xlink:href="#DejaVuSans-61" x="222.074219"/>
      <use xlink:href="#DejaVuSans-62" x="283.353516"/>
      <use xlink:href="#DejaVuSans-69" x="346.830078"/>
      <use xlink:href="#DejaVuSans-6c" x="374.613281"/>
      <use xlink:href="#DejaVuSans-69" x="402.396484"/>
      <use xlink:href="#DejaVuSans-74" x="430.179688"/>
      <use xlink:href="#DejaVuSans-79" x="469.388672"/>
      <use xlink:href="#DejaVuSans-20" x="528.568359"/>
      <use xlink:href="#DejaVuSans-64" x="560.355469"/>
      <use xlink:href="#DejaVuSans-65" x="623.832031"/>
      <use xlink:href="#DejaVuSans-6e" x="685.355469"/>
      <use xlink:href="#DejaVuSans-73" x="748.734375"/>
      <use xlink:href="#DejaVuSans-69" x="800.833984"/>
      <use xlink:href="#DejaVuSans-74" x="828.617188"/>
      <use xlink:href="#DejaVuSans-79" x="867.826172"/>
     </g>
    </g>
   </g>
   <g id="line2d_16">
    <path d="M 60.013977 273.312 
L 79.837728 229.004741 
L 90.237073 206.310276 
L 99.01152 187.680021 
L 106.811029 171.633674 
L 113.960578 157.430909 
L 120.460169 144.998692 
L 126.63478 133.657335 
L 132.484411 123.372027 
L 138.009063 114.098602 
L 143.208736 105.785789 
L 148.408408 97.89701 
L 153.283101 90.90416 
L 157.832814 84.743325 
L 162.382528 78.947936 
L 166.607261 73.903557 
L 170.831995 69.192404 
L 175.056729 64.822349 
L 178.956483 61.097527 
L 182.856238 57.674877 
L 186.755992 54.559274 
L 190.330767 51.976832 
L 193.905542 49.659216 
L 197.480316 47.6092 
L 201.055091 45.829236 
L 204.304886 44.447228 
L 207.554682 43.291535 
L 210.804477 42.363298 
L 214.054272 41.663437 
L 217.304067 41.192642 
L 220.553863 40.951381 
L 223.803658 40.93989 
L 227.053453 41.158182 
L 230.303248 41.60604 
L 233.553044 42.283022 
L 236.802839 43.188459 
L 240.052634 44.321454 
L 243.302429 45.680889 
L 246.552225 47.265417 
L 250.126999 49.266506 
L 253.701774 51.535664 
L 257.276549 54.070176 
L 260.851324 56.86701 
L 264.751078 60.213338 
L 268.650832 63.863097 
L 272.550587 67.811091 
L 276.77532 72.418103 
L 281.000054 77.360824 
L 285.549768 83.049704 
L 290.099481 89.107314 
L 294.974174 95.993434 
L 299.848867 103.274035 
L 305.048539 111.456548 
L 310.248212 120.048741 
L 315.772863 129.60249 
L 321.622495 140.165191 
L 327.797106 151.776719 
L 334.296696 164.467175 
L 341.446246 178.92183 
L 349.245755 195.203159 
L 358.020202 214.046513 
L 368.419546 236.921262 
L 383.693584 271.119565 
L 384.668523 273.312 
L 384.668523 273.312 
" clip-path="url(#pfc75b2e71d)" style="fill: none; stroke: #ff7f0e; stroke-width: 1.5; stroke-linecap: square"/>
   </g>
   <g id="patch_203">
    <path d="M 43.78125 273.312 
L 43.78125 7.2 
" style="fill: none; stroke: #000000; stroke-width: 0.8; stroke-linejoin: miter; stroke-linecap: square"/>
   </g>
   <g id="patch_204">
    <path d="M 400.90125 273.312 
L 400.90125 7.2 
" style="fill: none; stroke: #000000; stroke-width: 0.8; stroke-linejoin: miter; stroke-linecap: square"/>
   </g>
   <g id="patch_205">
    <path d="M 43.78125 273.312 
L 400.90125 273.312 
" style="fill: none; stroke: #000000; stroke-width: 0.8; stroke-linejoin: miter; stroke-linecap: square"/>
   </g>
   <g id="patch_206">
    <path d="M 43.78125 7.2 
L 400.90125 7.2 
" style="fill: none; stroke: #000000; stroke-width: 0.8; stroke-linejoin: miter; stroke-linecap: square"/>
   </g>
  </g>
 </g>
 <defs>
  <clipPath id="pfc75b2e71d">
   <rect x="43.78125" y="7.2" width="357.12" height="266.112"/>
  </clipPath>
 </defs>
</svg>
